<?xml version="1.0" encoding="UTF-8"?>
<svg viewBox="0 0 1090.88 280" fill="currentColor" xmlns="http://www.w3.org/2000/svg">
  <path fill-rule="evenodd" d="M619.42,29.69c0,15.43-10.87,27.93-27.93,27.93s-27.93-12.51-27.93-27.93,10.86-27.93,27.92-27.93,27.93,12.51,27.93,27.93h0ZM158.64,242.4v33.54H12.13v-33.55h48.36c3.16,0,5.73-2.57,5.73-5.73V87.77c0-3.16-2.57-5.73-5.73-5.73H7.85v-34.31h98.33v188.94c0,3.16,2.57,5.73,5.73,5.73h46.74ZM168.85,179.86c0,58.52,37.29,98.33,99.47,98.33,49.15,0,79.7-30.6,86.27-67.08h-40.69c-6.29,24.54-26.97,33.91-48.61,33.91-48.85,0-53.41-45.18-53.83-55-.04-1.02.77-1.87,1.79-1.87h143.61c.76-5.26,1.13-10.42,1.13-15.44,0-32.71-20.25-91.92-95.33-91.92-57.04,0-93.8,41.26-93.81,99.07ZM314.47,158.39l-99.49.02c-1.08,0-1.94-.96-1.78-2.02,4.49-31.28,30.98-42.82,50.98-42.82,33.88,0,48.71,21.59,52.08,42.79.17,1.08-.69,2.04-1.78,2.04h0ZM867.2,83.16h0s0,0,0,0h0ZM826.87,83.16h40.33v192.83h-40.32v-24.53c0-3.09-3.92-4.41-5.79-1.95-.18.23-.35.47-.53.71h0s0,.02,0,.02h0c-.11.16-.23.32-.35.47-7.92,10.56-20.68,27.53-56.24,27.53-60.83,0-91.19-46.33-91.19-98.7,0-61.42,40.37-98.72,91.17-98.72,36.73,0,48.44,15.73,56.64,26.75l.49.66c1.86,2.49,5.81,1.18,5.81-1.93v-23.14ZM770.75,115.48c34.78,0,56.14,27.81,56.14,64.8h0c0,42-26.32,63.68-56.14,63.68-34.83,0-56.14-27.43-56.14-64.43,0-42.07,26.11-64.05,56.14-64.05ZM1063.39,101.7c14.42,14.06,21.64,36.67,21.64,67.8v106.25h-41.06v-103.99c0-43.98-22.35-56.14-45.96-56.14-31.99,0-51.6,23.22-51.6,62.92v97.21h-40.68V83.15h39.93v25.07c0,3.11,3.95,4.4,5.82,1.92,8.55-11.4,26.72-29.52,55.98-29.52,37.55,0,55.75,20.88,55.93,21.08ZM657.42,275.94v-33.54h0s-37.37,0-37.37,0c-3.16,0-5.73-2.57-5.73-5.73V83.14h-81.34v34.31h37.54c3.16,0,5.73,2.57,5.73,5.73v113.48c0,3.16-2.57,5.73-5.73,5.73h-38.14v33.55h125.03ZM499.27,119.27c0,.13-.1.23-.23.23h0s-36.31,0-36.31,0c-28.68,0-28.65,24.99-28.64,43.62,0,.46,0,.92,0,1.37v111.24c0,.13-.1.23-.23.23h-41.01c-.13,0-.23-.1-.23-.23V83.27c0-.13.1-.23.23-.23h36.49c.13,0,.23.1.23.23v24.03c0,4.05,5.24,5.65,7.49,2.28.22-.32.43-.64.65-.97,8.18-12.25,18.71-28.02,52.51-28.02h9.05v38.68Z"/>
</svg>
